G75*
%MOIN*%
%OFA0B0*%
%FSLAX25Y25*%
%IPPOS*%
%LPD*%
%AMOC8*
5,1,8,0,0,1.08239X$1,22.5*
%
%ADD10C,0.13800*%
%ADD11C,0.08200*%
%ADD12C,0.03300*%
%ADD13R,0.03300X0.05800*%
%ADD14C,0.00500*%
%ADD15C,0.07887*%
D10*
X0058342Y0038750D03*
X0138342Y0038750D03*
X0160342Y0038750D03*
X0240342Y0038750D03*
X0262342Y0038750D03*
X0342342Y0038750D03*
X0342342Y0158750D03*
X0342342Y0180750D03*
X0262342Y0180750D03*
X0240342Y0180750D03*
X0240342Y0158750D03*
X0262342Y0158750D03*
X0160342Y0158750D03*
X0138342Y0158750D03*
X0138342Y0180750D03*
X0160342Y0180750D03*
X0058342Y0180750D03*
X0058342Y0158750D03*
X0058342Y0300750D03*
X0138342Y0300750D03*
X0160342Y0300750D03*
X0240342Y0300750D03*
X0262342Y0300750D03*
X0342342Y0300750D03*
D11*
X0332342Y0245750D03*
X0322342Y0245750D03*
X0312342Y0245750D03*
X0302342Y0245750D03*
X0292342Y0245750D03*
X0282342Y0245750D03*
X0272342Y0245750D03*
X0230342Y0245750D03*
X0220342Y0245750D03*
X0210342Y0245750D03*
X0200342Y0245750D03*
X0190342Y0245750D03*
X0180342Y0245750D03*
X0170342Y0245750D03*
X0128342Y0245750D03*
X0118342Y0245750D03*
X0108342Y0245750D03*
X0098342Y0245750D03*
X0088342Y0245750D03*
X0078342Y0245750D03*
X0068342Y0245750D03*
X0073342Y0175750D03*
X0083342Y0175750D03*
X0093342Y0175750D03*
X0103342Y0175750D03*
X0113342Y0175750D03*
X0123342Y0175750D03*
X0175342Y0175750D03*
X0185342Y0175750D03*
X0195342Y0175750D03*
X0205342Y0175750D03*
X0215342Y0175750D03*
X0225342Y0175750D03*
X0277342Y0175750D03*
X0287342Y0175750D03*
X0297342Y0175750D03*
X0307342Y0175750D03*
X0317342Y0175750D03*
X0327342Y0175750D03*
X0332342Y0103750D03*
X0322342Y0103750D03*
X0312342Y0103750D03*
X0302342Y0103750D03*
X0292342Y0103750D03*
X0282342Y0103750D03*
X0272342Y0103750D03*
X0230342Y0103750D03*
X0220342Y0103750D03*
X0210342Y0103750D03*
X0200342Y0103750D03*
X0190342Y0103750D03*
X0180342Y0103750D03*
X0170342Y0103750D03*
X0128342Y0103750D03*
X0118342Y0103750D03*
X0108342Y0103750D03*
X0098342Y0103750D03*
X0088342Y0103750D03*
X0078342Y0103750D03*
X0068342Y0103750D03*
X0073342Y0033750D03*
X0083342Y0033750D03*
X0093342Y0033750D03*
X0103342Y0033750D03*
X0113342Y0033750D03*
X0123342Y0033750D03*
X0175342Y0033750D03*
X0185342Y0033750D03*
X0195342Y0033750D03*
X0205342Y0033750D03*
X0215342Y0033750D03*
X0225342Y0033750D03*
X0277342Y0033750D03*
X0287342Y0033750D03*
X0297342Y0033750D03*
X0307342Y0033750D03*
X0317342Y0033750D03*
X0327342Y0033750D03*
D12*
X0050842Y0031250D03*
X0152842Y0031250D03*
X0254842Y0031250D03*
X0247842Y0166250D03*
X0254842Y0173250D03*
X0349842Y0166250D03*
X0349842Y0308250D03*
X0247842Y0308250D03*
X0145842Y0308250D03*
X0152842Y0173250D03*
X0145842Y0166250D03*
X0050842Y0173250D03*
D13*
X0076342Y0225750D03*
X0080342Y0225750D03*
X0178342Y0225750D03*
X0182342Y0225750D03*
X0280342Y0225750D03*
X0284342Y0225750D03*
X0284342Y0083750D03*
X0280342Y0083750D03*
X0182342Y0083750D03*
X0178342Y0083750D03*
X0080342Y0083750D03*
X0076342Y0083750D03*
D14*
X0077592Y0083586D02*
X0079092Y0083586D01*
X0079092Y0083250D02*
X0079092Y0084250D01*
X0077592Y0084250D01*
X0077592Y0083250D01*
X0079092Y0083250D01*
X0079092Y0084085D02*
X0077592Y0084085D01*
X0179592Y0084085D02*
X0181092Y0084085D01*
X0181092Y0084250D02*
X0181092Y0083250D01*
X0179592Y0083250D01*
X0179592Y0084250D01*
X0181092Y0084250D01*
X0181092Y0083586D02*
X0179592Y0083586D01*
X0281592Y0083586D02*
X0283092Y0083586D01*
X0283092Y0083250D02*
X0283092Y0084250D01*
X0281592Y0084250D01*
X0281592Y0083250D01*
X0283092Y0083250D01*
X0283092Y0084085D02*
X0281592Y0084085D01*
X0281592Y0225250D02*
X0283092Y0225250D01*
X0283092Y0226250D01*
X0281592Y0226250D01*
X0281592Y0225250D01*
X0281592Y0225662D02*
X0283092Y0225662D01*
X0283092Y0226160D02*
X0281592Y0226160D01*
X0181092Y0226160D02*
X0179592Y0226160D01*
X0179592Y0226250D02*
X0179592Y0225250D01*
X0181092Y0225250D01*
X0181092Y0226250D01*
X0179592Y0226250D01*
X0179592Y0225662D02*
X0181092Y0225662D01*
X0079092Y0225662D02*
X0077592Y0225662D01*
X0077592Y0225250D02*
X0079092Y0225250D01*
X0079092Y0226250D01*
X0077592Y0226250D01*
X0077592Y0225250D01*
X0077592Y0226160D02*
X0079092Y0226160D01*
D15*
X0077342Y0262250D03*
X0087342Y0262250D03*
X0097342Y0262250D03*
X0107342Y0262250D03*
X0107342Y0282250D03*
X0097342Y0282250D03*
X0087342Y0282250D03*
X0077342Y0282250D03*
X0179342Y0282250D03*
X0189342Y0282250D03*
X0199342Y0282250D03*
X0209342Y0282250D03*
X0209342Y0262250D03*
X0199342Y0262250D03*
X0189342Y0262250D03*
X0179342Y0262250D03*
X0281342Y0262250D03*
X0291342Y0262250D03*
X0301342Y0262250D03*
X0311342Y0262250D03*
X0311342Y0282250D03*
X0301342Y0282250D03*
X0291342Y0282250D03*
X0281342Y0282250D03*
X0281342Y0140250D03*
X0291342Y0140250D03*
X0301342Y0140250D03*
X0311342Y0140250D03*
X0311342Y0120250D03*
X0301342Y0120250D03*
X0291342Y0120250D03*
X0281342Y0120250D03*
X0209342Y0120250D03*
X0199342Y0120250D03*
X0189342Y0120250D03*
X0179342Y0120250D03*
X0179342Y0140250D03*
X0189342Y0140250D03*
X0199342Y0140250D03*
X0209342Y0140250D03*
X0107342Y0140250D03*
X0097342Y0140250D03*
X0087342Y0140250D03*
X0077342Y0140250D03*
X0077342Y0120250D03*
X0087342Y0120250D03*
X0097342Y0120250D03*
X0107342Y0120250D03*
M02*
