G75*
%MOIN*%
%OFA0B0*%
%FSLAX25Y25*%
%IPPOS*%
%LPD*%
%AMOC8*
5,1,8,0,0,1.08239X$1,22.5*
%
%ADD10R,0.07874X0.04724*%
%ADD11R,0.05315X0.02362*%
%ADD12C,0.01181*%
%ADD13R,0.02362X0.04724*%
%ADD14R,0.04331X0.03937*%
%ADD15R,0.03937X0.04331*%
D10*
X0053873Y0072726D03*
X0053873Y0094774D03*
X0142810Y0094774D03*
X0155873Y0094774D03*
X0155873Y0072726D03*
X0142810Y0072726D03*
X0244810Y0072726D03*
X0257873Y0072726D03*
X0257873Y0094774D03*
X0244810Y0094774D03*
X0346810Y0094774D03*
X0346810Y0072726D03*
X0346810Y0214726D03*
X0346810Y0236774D03*
X0257873Y0236774D03*
X0244810Y0236774D03*
X0244810Y0214726D03*
X0257873Y0214726D03*
X0155873Y0214726D03*
X0142810Y0214726D03*
X0142810Y0236774D03*
X0155873Y0236774D03*
X0053873Y0236774D03*
X0053873Y0214726D03*
D11*
X0068342Y0219844D03*
X0068342Y0223781D03*
X0068342Y0227719D03*
X0068342Y0231656D03*
X0128342Y0231656D03*
X0128342Y0227719D03*
X0128342Y0223781D03*
X0128342Y0219844D03*
X0170342Y0219844D03*
X0170342Y0223781D03*
X0170342Y0227719D03*
X0170342Y0231656D03*
X0230342Y0231656D03*
X0230342Y0227719D03*
X0230342Y0223781D03*
X0230342Y0219844D03*
X0272342Y0219844D03*
X0272342Y0223781D03*
X0272342Y0227719D03*
X0272342Y0231656D03*
X0332342Y0231656D03*
X0332342Y0227719D03*
X0332342Y0223781D03*
X0332342Y0219844D03*
X0332342Y0089656D03*
X0332342Y0085719D03*
X0332342Y0081781D03*
X0332342Y0077844D03*
X0272342Y0077844D03*
X0272342Y0081781D03*
X0272342Y0085719D03*
X0272342Y0089656D03*
X0230342Y0089656D03*
X0230342Y0085719D03*
X0230342Y0081781D03*
X0230342Y0077844D03*
X0170342Y0077844D03*
X0170342Y0081781D03*
X0170342Y0085719D03*
X0170342Y0089656D03*
X0128342Y0089656D03*
X0128342Y0085719D03*
X0128342Y0081781D03*
X0128342Y0077844D03*
X0068342Y0077844D03*
X0068342Y0081781D03*
X0068342Y0085719D03*
X0068342Y0089656D03*
D12*
X0061720Y0053919D02*
X0058964Y0053919D01*
X0058964Y0056675D01*
X0061720Y0056675D01*
X0061720Y0053919D01*
X0061720Y0055041D02*
X0058964Y0055041D01*
X0058964Y0056163D02*
X0061720Y0056163D01*
X0061720Y0060825D02*
X0058964Y0060825D01*
X0058964Y0063581D01*
X0061720Y0063581D01*
X0061720Y0060825D01*
X0061720Y0061947D02*
X0058964Y0061947D01*
X0058964Y0063069D02*
X0061720Y0063069D01*
X0160964Y0060825D02*
X0163720Y0060825D01*
X0160964Y0060825D02*
X0160964Y0063581D01*
X0163720Y0063581D01*
X0163720Y0060825D01*
X0163720Y0061947D02*
X0160964Y0061947D01*
X0160964Y0063069D02*
X0163720Y0063069D01*
X0163720Y0053919D02*
X0160964Y0053919D01*
X0160964Y0056675D01*
X0163720Y0056675D01*
X0163720Y0053919D01*
X0163720Y0055041D02*
X0160964Y0055041D01*
X0160964Y0056163D02*
X0163720Y0056163D01*
X0262964Y0053919D02*
X0265720Y0053919D01*
X0262964Y0053919D02*
X0262964Y0056675D01*
X0265720Y0056675D01*
X0265720Y0053919D01*
X0265720Y0055041D02*
X0262964Y0055041D01*
X0262964Y0056163D02*
X0265720Y0056163D01*
X0265720Y0060825D02*
X0262964Y0060825D01*
X0262964Y0063581D01*
X0265720Y0063581D01*
X0265720Y0060825D01*
X0265720Y0061947D02*
X0262964Y0061947D01*
X0262964Y0063069D02*
X0265720Y0063069D01*
X0265720Y0195919D02*
X0262964Y0195919D01*
X0262964Y0198675D01*
X0265720Y0198675D01*
X0265720Y0195919D01*
X0265720Y0197041D02*
X0262964Y0197041D01*
X0262964Y0198163D02*
X0265720Y0198163D01*
X0265720Y0202825D02*
X0262964Y0202825D01*
X0262964Y0205581D01*
X0265720Y0205581D01*
X0265720Y0202825D01*
X0265720Y0203947D02*
X0262964Y0203947D01*
X0262964Y0205069D02*
X0265720Y0205069D01*
X0163720Y0202825D02*
X0160964Y0202825D01*
X0160964Y0205581D01*
X0163720Y0205581D01*
X0163720Y0202825D01*
X0163720Y0203947D02*
X0160964Y0203947D01*
X0160964Y0205069D02*
X0163720Y0205069D01*
X0163720Y0195919D02*
X0160964Y0195919D01*
X0160964Y0198675D01*
X0163720Y0198675D01*
X0163720Y0195919D01*
X0163720Y0197041D02*
X0160964Y0197041D01*
X0160964Y0198163D02*
X0163720Y0198163D01*
X0061720Y0195919D02*
X0058964Y0195919D01*
X0058964Y0198675D01*
X0061720Y0198675D01*
X0061720Y0195919D01*
X0061720Y0197041D02*
X0058964Y0197041D01*
X0058964Y0198163D02*
X0061720Y0198163D01*
X0061720Y0202825D02*
X0058964Y0202825D01*
X0058964Y0205581D01*
X0061720Y0205581D01*
X0061720Y0202825D01*
X0061720Y0203947D02*
X0058964Y0203947D01*
X0058964Y0205069D02*
X0061720Y0205069D01*
D13*
X0080842Y0199726D03*
X0085842Y0199726D03*
X0090842Y0199726D03*
X0095842Y0199726D03*
X0100842Y0199726D03*
X0105842Y0199726D03*
X0110842Y0199726D03*
X0115842Y0199726D03*
X0115842Y0221774D03*
X0110842Y0221774D03*
X0105842Y0221774D03*
X0100842Y0221774D03*
X0095842Y0221774D03*
X0090842Y0221774D03*
X0085842Y0221774D03*
X0080842Y0221774D03*
X0182842Y0221774D03*
X0187842Y0221774D03*
X0192842Y0221774D03*
X0197842Y0221774D03*
X0202842Y0221774D03*
X0207842Y0221774D03*
X0212842Y0221774D03*
X0217842Y0221774D03*
X0217842Y0199726D03*
X0212842Y0199726D03*
X0207842Y0199726D03*
X0202842Y0199726D03*
X0197842Y0199726D03*
X0192842Y0199726D03*
X0187842Y0199726D03*
X0182842Y0199726D03*
X0284842Y0199726D03*
X0289842Y0199726D03*
X0294842Y0199726D03*
X0299842Y0199726D03*
X0304842Y0199726D03*
X0309842Y0199726D03*
X0314842Y0199726D03*
X0319842Y0199726D03*
X0319842Y0221774D03*
X0314842Y0221774D03*
X0309842Y0221774D03*
X0304842Y0221774D03*
X0299842Y0221774D03*
X0294842Y0221774D03*
X0289842Y0221774D03*
X0284842Y0221774D03*
X0284842Y0079774D03*
X0289842Y0079774D03*
X0294842Y0079774D03*
X0299842Y0079774D03*
X0304842Y0079774D03*
X0309842Y0079774D03*
X0314842Y0079774D03*
X0319842Y0079774D03*
X0319842Y0057726D03*
X0314842Y0057726D03*
X0309842Y0057726D03*
X0304842Y0057726D03*
X0299842Y0057726D03*
X0294842Y0057726D03*
X0289842Y0057726D03*
X0284842Y0057726D03*
X0217842Y0057726D03*
X0212842Y0057726D03*
X0207842Y0057726D03*
X0202842Y0057726D03*
X0197842Y0057726D03*
X0192842Y0057726D03*
X0187842Y0057726D03*
X0182842Y0057726D03*
X0182842Y0079774D03*
X0187842Y0079774D03*
X0192842Y0079774D03*
X0197842Y0079774D03*
X0202842Y0079774D03*
X0207842Y0079774D03*
X0212842Y0079774D03*
X0217842Y0079774D03*
X0115842Y0079774D03*
X0110842Y0079774D03*
X0105842Y0079774D03*
X0100842Y0079774D03*
X0095842Y0079774D03*
X0090842Y0079774D03*
X0085842Y0079774D03*
X0080842Y0079774D03*
X0080842Y0057726D03*
X0085842Y0057726D03*
X0090842Y0057726D03*
X0095842Y0057726D03*
X0100842Y0057726D03*
X0105842Y0057726D03*
X0110842Y0057726D03*
X0115842Y0057726D03*
D14*
X0134995Y0061250D03*
X0134995Y0067250D03*
X0141688Y0067250D03*
X0141688Y0061250D03*
X0116688Y0088750D03*
X0116688Y0094750D03*
X0109995Y0094750D03*
X0109995Y0088750D03*
X0101688Y0088750D03*
X0101688Y0094750D03*
X0094995Y0094750D03*
X0094995Y0088750D03*
X0086688Y0088750D03*
X0079995Y0088750D03*
X0181995Y0088750D03*
X0188688Y0088750D03*
X0196995Y0088750D03*
X0196995Y0094750D03*
X0203688Y0094750D03*
X0203688Y0088750D03*
X0211995Y0088750D03*
X0211995Y0094750D03*
X0218688Y0094750D03*
X0218688Y0088750D03*
X0236995Y0067250D03*
X0236995Y0061250D03*
X0243688Y0061250D03*
X0243688Y0067250D03*
X0283995Y0088750D03*
X0290688Y0088750D03*
X0298995Y0088750D03*
X0298995Y0094750D03*
X0305688Y0094750D03*
X0305688Y0088750D03*
X0313995Y0088750D03*
X0313995Y0094750D03*
X0320688Y0094750D03*
X0320688Y0088750D03*
X0338995Y0067250D03*
X0338995Y0061250D03*
X0345688Y0061250D03*
X0345688Y0067250D03*
X0345688Y0203250D03*
X0338995Y0203250D03*
X0338995Y0209250D03*
X0345688Y0209250D03*
X0320688Y0230750D03*
X0320688Y0236750D03*
X0313995Y0236750D03*
X0305688Y0236750D03*
X0305688Y0230750D03*
X0313995Y0230750D03*
X0298995Y0230750D03*
X0298995Y0236750D03*
X0290688Y0230750D03*
X0283995Y0230750D03*
X0243688Y0209250D03*
X0236995Y0209250D03*
X0236995Y0203250D03*
X0243688Y0203250D03*
X0218688Y0230750D03*
X0218688Y0236750D03*
X0211995Y0236750D03*
X0211995Y0230750D03*
X0203688Y0230750D03*
X0196995Y0230750D03*
X0196995Y0236750D03*
X0203688Y0236750D03*
X0188688Y0230750D03*
X0181995Y0230750D03*
X0141688Y0209250D03*
X0141688Y0203250D03*
X0134995Y0203250D03*
X0134995Y0209250D03*
X0116688Y0230750D03*
X0109995Y0230750D03*
X0109995Y0236750D03*
X0116688Y0236750D03*
X0101688Y0236750D03*
X0101688Y0230750D03*
X0094995Y0230750D03*
X0086688Y0230750D03*
X0079995Y0230750D03*
X0094995Y0236750D03*
D15*
X0123342Y0214096D03*
X0123342Y0207404D03*
X0167842Y0204096D03*
X0167842Y0197404D03*
X0225342Y0207404D03*
X0225342Y0214096D03*
X0269842Y0204096D03*
X0269842Y0197404D03*
X0327342Y0207404D03*
X0327342Y0214096D03*
X0332342Y0257404D03*
X0332342Y0264096D03*
X0230342Y0264096D03*
X0230342Y0257404D03*
X0128342Y0257404D03*
X0128342Y0264096D03*
X0065842Y0204096D03*
X0065842Y0197404D03*
X0128342Y0122096D03*
X0128342Y0115404D03*
X0123342Y0072096D03*
X0123342Y0065404D03*
X0167842Y0062096D03*
X0167842Y0055404D03*
X0225342Y0065404D03*
X0225342Y0072096D03*
X0269842Y0062096D03*
X0269842Y0055404D03*
X0327342Y0065404D03*
X0327342Y0072096D03*
X0332342Y0115404D03*
X0332342Y0122096D03*
X0230342Y0122096D03*
X0230342Y0115404D03*
X0065842Y0062096D03*
X0065842Y0055404D03*
M02*
