G75*
%MOIN*%
%OFA0B0*%
%FSLAX25Y25*%
%IPPOS*%
%LPD*%
%AMOC8*
5,1,8,0,0,1.08239X$1,22.5*
%
%ADD10C,0.13800*%
%ADD11C,0.03300*%
%ADD12R,0.08674X0.05524*%
%ADD13R,0.06115X0.03162*%
%ADD14C,0.08200*%
%ADD15C,0.01990*%
%ADD16R,0.03162X0.05524*%
%ADD17R,0.05131X0.04737*%
%ADD18R,0.04737X0.05131*%
%ADD19R,0.03300X0.05800*%
%ADD20C,0.00500*%
%ADD21C,0.07887*%
%ADD22C,0.04737*%
%ADD23C,0.05000*%
%ADD24C,0.06706*%
D10*
X0058342Y0038750D03*
X0138342Y0038750D03*
X0160342Y0038750D03*
X0240342Y0038750D03*
X0262342Y0038750D03*
X0342342Y0038750D03*
X0342342Y0158750D03*
X0342342Y0180750D03*
X0262342Y0180750D03*
X0240342Y0180750D03*
X0240342Y0158750D03*
X0262342Y0158750D03*
X0160342Y0158750D03*
X0138342Y0158750D03*
X0138342Y0180750D03*
X0160342Y0180750D03*
X0058342Y0180750D03*
X0058342Y0158750D03*
X0058342Y0300750D03*
X0138342Y0300750D03*
X0160342Y0300750D03*
X0240342Y0300750D03*
X0262342Y0300750D03*
X0342342Y0300750D03*
D11*
X0050842Y0031250D03*
X0152842Y0031250D03*
X0254842Y0031250D03*
X0247842Y0166250D03*
X0254842Y0173250D03*
X0349842Y0166250D03*
X0349842Y0308250D03*
X0247842Y0308250D03*
X0145842Y0308250D03*
X0152842Y0173250D03*
X0145842Y0166250D03*
X0050842Y0173250D03*
D12*
X0053873Y0214726D03*
X0053873Y0236774D03*
X0142810Y0236774D03*
X0155873Y0236774D03*
X0155873Y0214726D03*
X0142810Y0214726D03*
X0244810Y0214726D03*
X0257873Y0214726D03*
X0257873Y0236774D03*
X0244810Y0236774D03*
X0346810Y0236774D03*
X0346810Y0214726D03*
X0346810Y0094774D03*
X0346810Y0072726D03*
X0257873Y0072726D03*
X0244810Y0072726D03*
X0244810Y0094774D03*
X0257873Y0094774D03*
X0155873Y0094774D03*
X0142810Y0094774D03*
X0142810Y0072726D03*
X0155873Y0072726D03*
X0053873Y0072726D03*
X0053873Y0094774D03*
D13*
X0068342Y0089656D03*
X0068342Y0085719D03*
X0068342Y0081781D03*
X0068342Y0077844D03*
X0128342Y0077844D03*
X0128342Y0081781D03*
X0128342Y0085719D03*
X0128342Y0089656D03*
X0170342Y0089656D03*
X0170342Y0085719D03*
X0170342Y0081781D03*
X0170342Y0077844D03*
X0230342Y0077844D03*
X0230342Y0081781D03*
X0230342Y0085719D03*
X0230342Y0089656D03*
X0272342Y0089656D03*
X0272342Y0085719D03*
X0272342Y0081781D03*
X0272342Y0077844D03*
X0332342Y0077844D03*
X0332342Y0081781D03*
X0332342Y0085719D03*
X0332342Y0089656D03*
X0332342Y0219844D03*
X0332342Y0223781D03*
X0332342Y0227719D03*
X0332342Y0231656D03*
X0272342Y0231656D03*
X0272342Y0227719D03*
X0272342Y0223781D03*
X0272342Y0219844D03*
X0230342Y0219844D03*
X0230342Y0223781D03*
X0230342Y0227719D03*
X0230342Y0231656D03*
X0170342Y0231656D03*
X0170342Y0227719D03*
X0170342Y0223781D03*
X0170342Y0219844D03*
X0128342Y0219844D03*
X0128342Y0223781D03*
X0128342Y0227719D03*
X0128342Y0231656D03*
X0068342Y0231656D03*
X0068342Y0227719D03*
X0068342Y0223781D03*
X0068342Y0219844D03*
D14*
X0068342Y0245750D03*
X0078342Y0245750D03*
X0088342Y0245750D03*
X0098342Y0245750D03*
X0108342Y0245750D03*
X0118342Y0245750D03*
X0128342Y0245750D03*
X0170342Y0245750D03*
X0180342Y0245750D03*
X0190342Y0245750D03*
X0200342Y0245750D03*
X0210342Y0245750D03*
X0220342Y0245750D03*
X0230342Y0245750D03*
X0272342Y0245750D03*
X0282342Y0245750D03*
X0292342Y0245750D03*
X0302342Y0245750D03*
X0312342Y0245750D03*
X0322342Y0245750D03*
X0332342Y0245750D03*
X0327342Y0175750D03*
X0317342Y0175750D03*
X0307342Y0175750D03*
X0297342Y0175750D03*
X0287342Y0175750D03*
X0277342Y0175750D03*
X0225342Y0175750D03*
X0215342Y0175750D03*
X0205342Y0175750D03*
X0195342Y0175750D03*
X0185342Y0175750D03*
X0175342Y0175750D03*
X0123342Y0175750D03*
X0113342Y0175750D03*
X0103342Y0175750D03*
X0093342Y0175750D03*
X0083342Y0175750D03*
X0073342Y0175750D03*
X0078342Y0103750D03*
X0088342Y0103750D03*
X0098342Y0103750D03*
X0108342Y0103750D03*
X0118342Y0103750D03*
X0128342Y0103750D03*
X0170342Y0103750D03*
X0180342Y0103750D03*
X0190342Y0103750D03*
X0200342Y0103750D03*
X0210342Y0103750D03*
X0220342Y0103750D03*
X0230342Y0103750D03*
X0272342Y0103750D03*
X0282342Y0103750D03*
X0292342Y0103750D03*
X0302342Y0103750D03*
X0312342Y0103750D03*
X0322342Y0103750D03*
X0332342Y0103750D03*
X0327342Y0033750D03*
X0317342Y0033750D03*
X0307342Y0033750D03*
X0297342Y0033750D03*
X0287342Y0033750D03*
X0277342Y0033750D03*
X0225342Y0033750D03*
X0215342Y0033750D03*
X0205342Y0033750D03*
X0195342Y0033750D03*
X0185342Y0033750D03*
X0175342Y0033750D03*
X0123342Y0033750D03*
X0113342Y0033750D03*
X0103342Y0033750D03*
X0093342Y0033750D03*
X0083342Y0033750D03*
X0073342Y0033750D03*
X0068342Y0103750D03*
D15*
X0061715Y0060830D02*
X0058969Y0060830D01*
X0058969Y0063576D01*
X0061715Y0063576D01*
X0061715Y0060830D01*
X0061715Y0062720D02*
X0058969Y0062720D01*
X0058969Y0053924D02*
X0061715Y0053924D01*
X0058969Y0053924D02*
X0058969Y0056670D01*
X0061715Y0056670D01*
X0061715Y0053924D01*
X0061715Y0055814D02*
X0058969Y0055814D01*
X0160969Y0053924D02*
X0163715Y0053924D01*
X0160969Y0053924D02*
X0160969Y0056670D01*
X0163715Y0056670D01*
X0163715Y0053924D01*
X0163715Y0055814D02*
X0160969Y0055814D01*
X0160969Y0060830D02*
X0163715Y0060830D01*
X0160969Y0060830D02*
X0160969Y0063576D01*
X0163715Y0063576D01*
X0163715Y0060830D01*
X0163715Y0062720D02*
X0160969Y0062720D01*
X0262969Y0060830D02*
X0265715Y0060830D01*
X0262969Y0060830D02*
X0262969Y0063576D01*
X0265715Y0063576D01*
X0265715Y0060830D01*
X0265715Y0062720D02*
X0262969Y0062720D01*
X0262969Y0053924D02*
X0265715Y0053924D01*
X0262969Y0053924D02*
X0262969Y0056670D01*
X0265715Y0056670D01*
X0265715Y0053924D01*
X0265715Y0055814D02*
X0262969Y0055814D01*
X0262969Y0195924D02*
X0265715Y0195924D01*
X0262969Y0195924D02*
X0262969Y0198670D01*
X0265715Y0198670D01*
X0265715Y0195924D01*
X0265715Y0197814D02*
X0262969Y0197814D01*
X0262969Y0202830D02*
X0265715Y0202830D01*
X0262969Y0202830D02*
X0262969Y0205576D01*
X0265715Y0205576D01*
X0265715Y0202830D01*
X0265715Y0204720D02*
X0262969Y0204720D01*
X0163715Y0202830D02*
X0160969Y0202830D01*
X0160969Y0205576D01*
X0163715Y0205576D01*
X0163715Y0202830D01*
X0163715Y0204720D02*
X0160969Y0204720D01*
X0160969Y0195924D02*
X0163715Y0195924D01*
X0160969Y0195924D02*
X0160969Y0198670D01*
X0163715Y0198670D01*
X0163715Y0195924D01*
X0163715Y0197814D02*
X0160969Y0197814D01*
X0061715Y0195924D02*
X0058969Y0195924D01*
X0058969Y0198670D01*
X0061715Y0198670D01*
X0061715Y0195924D01*
X0061715Y0197814D02*
X0058969Y0197814D01*
X0058969Y0202830D02*
X0061715Y0202830D01*
X0058969Y0202830D02*
X0058969Y0205576D01*
X0061715Y0205576D01*
X0061715Y0202830D01*
X0061715Y0204720D02*
X0058969Y0204720D01*
D16*
X0080842Y0199726D03*
X0085842Y0199726D03*
X0090842Y0199726D03*
X0095842Y0199726D03*
X0100842Y0199726D03*
X0105842Y0199726D03*
X0110842Y0199726D03*
X0115842Y0199726D03*
X0115842Y0221774D03*
X0110842Y0221774D03*
X0105842Y0221774D03*
X0100842Y0221774D03*
X0095842Y0221774D03*
X0090842Y0221774D03*
X0085842Y0221774D03*
X0080842Y0221774D03*
X0182842Y0221774D03*
X0187842Y0221774D03*
X0192842Y0221774D03*
X0197842Y0221774D03*
X0202842Y0221774D03*
X0207842Y0221774D03*
X0212842Y0221774D03*
X0217842Y0221774D03*
X0217842Y0199726D03*
X0212842Y0199726D03*
X0207842Y0199726D03*
X0202842Y0199726D03*
X0197842Y0199726D03*
X0192842Y0199726D03*
X0187842Y0199726D03*
X0182842Y0199726D03*
X0284842Y0199726D03*
X0289842Y0199726D03*
X0294842Y0199726D03*
X0299842Y0199726D03*
X0304842Y0199726D03*
X0309842Y0199726D03*
X0314842Y0199726D03*
X0319842Y0199726D03*
X0319842Y0221774D03*
X0314842Y0221774D03*
X0309842Y0221774D03*
X0304842Y0221774D03*
X0299842Y0221774D03*
X0294842Y0221774D03*
X0289842Y0221774D03*
X0284842Y0221774D03*
X0284842Y0079774D03*
X0289842Y0079774D03*
X0294842Y0079774D03*
X0299842Y0079774D03*
X0304842Y0079774D03*
X0309842Y0079774D03*
X0314842Y0079774D03*
X0319842Y0079774D03*
X0319842Y0057726D03*
X0314842Y0057726D03*
X0309842Y0057726D03*
X0304842Y0057726D03*
X0299842Y0057726D03*
X0294842Y0057726D03*
X0289842Y0057726D03*
X0284842Y0057726D03*
X0217842Y0057726D03*
X0212842Y0057726D03*
X0207842Y0057726D03*
X0202842Y0057726D03*
X0197842Y0057726D03*
X0192842Y0057726D03*
X0187842Y0057726D03*
X0182842Y0057726D03*
X0182842Y0079774D03*
X0187842Y0079774D03*
X0192842Y0079774D03*
X0197842Y0079774D03*
X0202842Y0079774D03*
X0207842Y0079774D03*
X0212842Y0079774D03*
X0217842Y0079774D03*
X0115842Y0079774D03*
X0110842Y0079774D03*
X0105842Y0079774D03*
X0100842Y0079774D03*
X0095842Y0079774D03*
X0090842Y0079774D03*
X0085842Y0079774D03*
X0080842Y0079774D03*
X0080842Y0057726D03*
X0085842Y0057726D03*
X0090842Y0057726D03*
X0095842Y0057726D03*
X0100842Y0057726D03*
X0105842Y0057726D03*
X0110842Y0057726D03*
X0115842Y0057726D03*
D17*
X0134995Y0061250D03*
X0134995Y0067250D03*
X0141688Y0067250D03*
X0141688Y0061250D03*
X0116688Y0088750D03*
X0116688Y0094750D03*
X0109995Y0094750D03*
X0109995Y0088750D03*
X0101688Y0088750D03*
X0101688Y0094750D03*
X0094995Y0094750D03*
X0094995Y0088750D03*
X0086688Y0088750D03*
X0079995Y0088750D03*
X0181995Y0088750D03*
X0188688Y0088750D03*
X0196995Y0088750D03*
X0196995Y0094750D03*
X0203688Y0094750D03*
X0203688Y0088750D03*
X0211995Y0088750D03*
X0211995Y0094750D03*
X0218688Y0094750D03*
X0218688Y0088750D03*
X0236995Y0067250D03*
X0236995Y0061250D03*
X0243688Y0061250D03*
X0243688Y0067250D03*
X0283995Y0088750D03*
X0290688Y0088750D03*
X0298995Y0088750D03*
X0298995Y0094750D03*
X0305688Y0094750D03*
X0305688Y0088750D03*
X0313995Y0088750D03*
X0313995Y0094750D03*
X0320688Y0094750D03*
X0320688Y0088750D03*
X0338995Y0067250D03*
X0338995Y0061250D03*
X0345688Y0061250D03*
X0345688Y0067250D03*
X0345688Y0203250D03*
X0338995Y0203250D03*
X0338995Y0209250D03*
X0345688Y0209250D03*
X0320688Y0230750D03*
X0320688Y0236750D03*
X0313995Y0236750D03*
X0305688Y0236750D03*
X0305688Y0230750D03*
X0313995Y0230750D03*
X0298995Y0230750D03*
X0298995Y0236750D03*
X0290688Y0230750D03*
X0283995Y0230750D03*
X0243688Y0209250D03*
X0236995Y0209250D03*
X0236995Y0203250D03*
X0243688Y0203250D03*
X0218688Y0230750D03*
X0218688Y0236750D03*
X0211995Y0236750D03*
X0211995Y0230750D03*
X0203688Y0230750D03*
X0196995Y0230750D03*
X0196995Y0236750D03*
X0203688Y0236750D03*
X0188688Y0230750D03*
X0181995Y0230750D03*
X0141688Y0209250D03*
X0141688Y0203250D03*
X0134995Y0203250D03*
X0134995Y0209250D03*
X0116688Y0230750D03*
X0109995Y0230750D03*
X0109995Y0236750D03*
X0116688Y0236750D03*
X0101688Y0236750D03*
X0101688Y0230750D03*
X0094995Y0230750D03*
X0086688Y0230750D03*
X0079995Y0230750D03*
X0094995Y0236750D03*
D18*
X0123342Y0214096D03*
X0123342Y0207404D03*
X0167842Y0204096D03*
X0167842Y0197404D03*
X0225342Y0207404D03*
X0225342Y0214096D03*
X0269842Y0204096D03*
X0269842Y0197404D03*
X0327342Y0207404D03*
X0327342Y0214096D03*
X0332342Y0257404D03*
X0332342Y0264096D03*
X0230342Y0264096D03*
X0230342Y0257404D03*
X0128342Y0257404D03*
X0128342Y0264096D03*
X0065842Y0204096D03*
X0065842Y0197404D03*
X0128342Y0122096D03*
X0128342Y0115404D03*
X0123342Y0072096D03*
X0123342Y0065404D03*
X0167842Y0062096D03*
X0167842Y0055404D03*
X0225342Y0065404D03*
X0225342Y0072096D03*
X0269842Y0062096D03*
X0269842Y0055404D03*
X0327342Y0065404D03*
X0327342Y0072096D03*
X0332342Y0115404D03*
X0332342Y0122096D03*
X0230342Y0122096D03*
X0230342Y0115404D03*
X0065842Y0062096D03*
X0065842Y0055404D03*
D19*
X0134342Y0054250D03*
X0138342Y0054250D03*
X0142342Y0054250D03*
X0236342Y0054250D03*
X0240342Y0054250D03*
X0244342Y0054250D03*
X0338342Y0054250D03*
X0342342Y0054250D03*
X0346342Y0054250D03*
X0346342Y0196250D03*
X0342342Y0196250D03*
X0338342Y0196250D03*
X0244342Y0196250D03*
X0240342Y0196250D03*
X0236342Y0196250D03*
X0142342Y0196250D03*
X0138342Y0196250D03*
X0134342Y0196250D03*
D20*
X0135592Y0196250D02*
X0141092Y0196250D01*
X0141092Y0196748D02*
X0135592Y0196748D01*
X0135592Y0196750D02*
X0135592Y0195750D01*
X0141092Y0195750D01*
X0141092Y0196750D01*
X0135592Y0196750D01*
X0135592Y0195751D02*
X0141092Y0195751D01*
X0237592Y0195751D02*
X0243092Y0195751D01*
X0243092Y0195750D02*
X0237592Y0195750D01*
X0237592Y0196750D01*
X0243092Y0196750D01*
X0243092Y0195750D01*
X0243092Y0196250D02*
X0237592Y0196250D01*
X0237592Y0196748D02*
X0243092Y0196748D01*
X0339592Y0196748D02*
X0345092Y0196748D01*
X0345092Y0196750D02*
X0345092Y0195750D01*
X0339592Y0195750D01*
X0339592Y0196750D01*
X0345092Y0196750D01*
X0345092Y0196250D02*
X0339592Y0196250D01*
X0339592Y0195751D02*
X0345092Y0195751D01*
X0345092Y0054750D02*
X0339592Y0054750D01*
X0339592Y0053750D01*
X0345092Y0053750D01*
X0345092Y0054750D01*
X0345092Y0054673D02*
X0339592Y0054673D01*
X0339592Y0054174D02*
X0345092Y0054174D01*
X0243092Y0054174D02*
X0237592Y0054174D01*
X0237592Y0053750D02*
X0237592Y0054750D01*
X0243092Y0054750D01*
X0243092Y0053750D01*
X0237592Y0053750D01*
X0237592Y0054673D02*
X0243092Y0054673D01*
X0141092Y0054673D02*
X0135592Y0054673D01*
X0135592Y0054750D02*
X0135592Y0053750D01*
X0141092Y0053750D01*
X0141092Y0054750D01*
X0135592Y0054750D01*
X0135592Y0054174D02*
X0141092Y0054174D01*
D21*
X0107342Y0120250D03*
X0097342Y0120250D03*
X0087342Y0120250D03*
X0077342Y0120250D03*
X0077342Y0140250D03*
X0087342Y0140250D03*
X0097342Y0140250D03*
X0107342Y0140250D03*
X0179342Y0140250D03*
X0189342Y0140250D03*
X0199342Y0140250D03*
X0209342Y0140250D03*
X0209342Y0120250D03*
X0199342Y0120250D03*
X0189342Y0120250D03*
X0179342Y0120250D03*
X0281342Y0120250D03*
X0291342Y0120250D03*
X0301342Y0120250D03*
X0311342Y0120250D03*
X0311342Y0140250D03*
X0301342Y0140250D03*
X0291342Y0140250D03*
X0281342Y0140250D03*
X0281342Y0262250D03*
X0291342Y0262250D03*
X0301342Y0262250D03*
X0311342Y0262250D03*
X0311342Y0282250D03*
X0301342Y0282250D03*
X0291342Y0282250D03*
X0281342Y0282250D03*
X0209342Y0282250D03*
X0199342Y0282250D03*
X0189342Y0282250D03*
X0179342Y0282250D03*
X0179342Y0262250D03*
X0189342Y0262250D03*
X0199342Y0262250D03*
X0209342Y0262250D03*
X0107342Y0262250D03*
X0097342Y0262250D03*
X0087342Y0262250D03*
X0077342Y0262250D03*
X0077342Y0282250D03*
X0087342Y0282250D03*
X0097342Y0282250D03*
X0107342Y0282250D03*
D22*
X0075342Y0319000D03*
X0325342Y0319000D03*
D23*
X0071777Y0020500D02*
X0071779Y0020619D01*
X0071785Y0020738D01*
X0071795Y0020857D01*
X0071809Y0020975D01*
X0071827Y0021093D01*
X0071848Y0021210D01*
X0071874Y0021326D01*
X0071904Y0021442D01*
X0071937Y0021556D01*
X0071974Y0021669D01*
X0072015Y0021781D01*
X0072060Y0021892D01*
X0072108Y0022001D01*
X0072160Y0022108D01*
X0072216Y0022213D01*
X0072275Y0022317D01*
X0072337Y0022418D01*
X0072403Y0022518D01*
X0072472Y0022615D01*
X0072544Y0022709D01*
X0072620Y0022802D01*
X0072698Y0022891D01*
X0072779Y0022978D01*
X0072864Y0023063D01*
X0072951Y0023144D01*
X0073040Y0023222D01*
X0073133Y0023298D01*
X0073227Y0023370D01*
X0073324Y0023439D01*
X0073424Y0023505D01*
X0073525Y0023567D01*
X0073629Y0023626D01*
X0073734Y0023682D01*
X0073841Y0023734D01*
X0073950Y0023782D01*
X0074061Y0023827D01*
X0074173Y0023868D01*
X0074286Y0023905D01*
X0074400Y0023938D01*
X0074516Y0023968D01*
X0074632Y0023994D01*
X0074749Y0024015D01*
X0074867Y0024033D01*
X0074985Y0024047D01*
X0075104Y0024057D01*
X0075223Y0024063D01*
X0075342Y0024065D01*
X0075461Y0024063D01*
X0075580Y0024057D01*
X0075699Y0024047D01*
X0075817Y0024033D01*
X0075935Y0024015D01*
X0076052Y0023994D01*
X0076168Y0023968D01*
X0076284Y0023938D01*
X0076398Y0023905D01*
X0076511Y0023868D01*
X0076623Y0023827D01*
X0076734Y0023782D01*
X0076843Y0023734D01*
X0076950Y0023682D01*
X0077055Y0023626D01*
X0077159Y0023567D01*
X0077260Y0023505D01*
X0077360Y0023439D01*
X0077457Y0023370D01*
X0077551Y0023298D01*
X0077644Y0023222D01*
X0077733Y0023144D01*
X0077820Y0023063D01*
X0077905Y0022978D01*
X0077986Y0022891D01*
X0078064Y0022802D01*
X0078140Y0022709D01*
X0078212Y0022615D01*
X0078281Y0022518D01*
X0078347Y0022418D01*
X0078409Y0022317D01*
X0078468Y0022213D01*
X0078524Y0022108D01*
X0078576Y0022001D01*
X0078624Y0021892D01*
X0078669Y0021781D01*
X0078710Y0021669D01*
X0078747Y0021556D01*
X0078780Y0021442D01*
X0078810Y0021326D01*
X0078836Y0021210D01*
X0078857Y0021093D01*
X0078875Y0020975D01*
X0078889Y0020857D01*
X0078899Y0020738D01*
X0078905Y0020619D01*
X0078907Y0020500D01*
X0078905Y0020381D01*
X0078899Y0020262D01*
X0078889Y0020143D01*
X0078875Y0020025D01*
X0078857Y0019907D01*
X0078836Y0019790D01*
X0078810Y0019674D01*
X0078780Y0019558D01*
X0078747Y0019444D01*
X0078710Y0019331D01*
X0078669Y0019219D01*
X0078624Y0019108D01*
X0078576Y0018999D01*
X0078524Y0018892D01*
X0078468Y0018787D01*
X0078409Y0018683D01*
X0078347Y0018582D01*
X0078281Y0018482D01*
X0078212Y0018385D01*
X0078140Y0018291D01*
X0078064Y0018198D01*
X0077986Y0018109D01*
X0077905Y0018022D01*
X0077820Y0017937D01*
X0077733Y0017856D01*
X0077644Y0017778D01*
X0077551Y0017702D01*
X0077457Y0017630D01*
X0077360Y0017561D01*
X0077260Y0017495D01*
X0077159Y0017433D01*
X0077055Y0017374D01*
X0076950Y0017318D01*
X0076843Y0017266D01*
X0076734Y0017218D01*
X0076623Y0017173D01*
X0076511Y0017132D01*
X0076398Y0017095D01*
X0076284Y0017062D01*
X0076168Y0017032D01*
X0076052Y0017006D01*
X0075935Y0016985D01*
X0075817Y0016967D01*
X0075699Y0016953D01*
X0075580Y0016943D01*
X0075461Y0016937D01*
X0075342Y0016935D01*
X0075223Y0016937D01*
X0075104Y0016943D01*
X0074985Y0016953D01*
X0074867Y0016967D01*
X0074749Y0016985D01*
X0074632Y0017006D01*
X0074516Y0017032D01*
X0074400Y0017062D01*
X0074286Y0017095D01*
X0074173Y0017132D01*
X0074061Y0017173D01*
X0073950Y0017218D01*
X0073841Y0017266D01*
X0073734Y0017318D01*
X0073629Y0017374D01*
X0073525Y0017433D01*
X0073424Y0017495D01*
X0073324Y0017561D01*
X0073227Y0017630D01*
X0073133Y0017702D01*
X0073040Y0017778D01*
X0072951Y0017856D01*
X0072864Y0017937D01*
X0072779Y0018022D01*
X0072698Y0018109D01*
X0072620Y0018198D01*
X0072544Y0018291D01*
X0072472Y0018385D01*
X0072403Y0018482D01*
X0072337Y0018582D01*
X0072275Y0018683D01*
X0072216Y0018787D01*
X0072160Y0018892D01*
X0072108Y0018999D01*
X0072060Y0019108D01*
X0072015Y0019219D01*
X0071974Y0019331D01*
X0071937Y0019444D01*
X0071904Y0019558D01*
X0071874Y0019674D01*
X0071848Y0019790D01*
X0071827Y0019907D01*
X0071809Y0020025D01*
X0071795Y0020143D01*
X0071785Y0020262D01*
X0071779Y0020381D01*
X0071777Y0020500D01*
D24*
X0075342Y0020500D03*
M02*
