%
M48
M72
T01C0.0150
T02C0.0400
T03C0.0433
T04C0.1300
%
T01
X7334Y5875
X8334Y6425
X8084Y7375
X7334Y8975
X6134Y8975
X6134Y8175
X6134Y7625
X6084Y6875
X9834Y4875
X11084Y5125
X10584Y6275
X11834Y6875
X12834Y6875
X13084Y6275
X12834Y5875
X12834Y4875
X10334Y7375
X10084Y8409
X13434Y7775
X13684Y8375
X14084Y8875
X16334Y8975
X16334Y8175
X16334Y7625
X16284Y6875
X17534Y5875
X18534Y6425
X18284Y7375
X17534Y8975
X20284Y8409
X20534Y7375
X20784Y6275
X21284Y5125
X20034Y4875
X22034Y6875
X23034Y6875
X23284Y6275
X23034Y5875
X23034Y4875
X23634Y7775
X23884Y8375
X24284Y8875
X26534Y8975
X26534Y8175
X26534Y7625
X26484Y6875
X27734Y5875
X28734Y6425
X28484Y7375
X27734Y8975
X30484Y8409
X30734Y7375
X30984Y6275
X32234Y6875
X33234Y6875
X33484Y6275
X33234Y5875
X33234Y4875
X31484Y5125
X30234Y4875
X33834Y7775
X34084Y8375
X34484Y8875
X33234Y19075
X33234Y20075
X33484Y20475
X33234Y21075
X32234Y21075
X30984Y20475
X30734Y21575
X30484Y22609
X28484Y21575
X28734Y20625
X27734Y20075
X26484Y21075
X26534Y21825
X26534Y22375
X26534Y23175
X27734Y23175
X24284Y23075
X23884Y22575
X23634Y21975
X23034Y21075
X23284Y20475
X23034Y20075
X23034Y19075
X21284Y19325
X20784Y20475
X20534Y21575
X20284Y22609
X18284Y21575
X18534Y20625
X17534Y20075
X16284Y21075
X16334Y21825
X16334Y22375
X16334Y23175
X17534Y23175
X14084Y23075
X13684Y22575
X13434Y21975
X12834Y21075
X13084Y20475
X12834Y20075
X12834Y19075
X11084Y19325
X10584Y20475
X11834Y21075
X10334Y21575
X10084Y22609
X8084Y21575
X8334Y20625
X7334Y20075
X6084Y21075
X6134Y21825
X6134Y22375
X6134Y23175
X7334Y23175
X9834Y19075
X20034Y19075
X22034Y21075
X30234Y19075
X31484Y19325
X33834Y21975
X34084Y22575
X34484Y23075
T02
X33234Y24575
X32234Y24575
X31234Y24575
X30234Y24575
X29234Y24575
X28234Y24575
X27234Y24575
X23034Y24575
X22034Y24575
X21034Y24575
X20034Y24575
X19034Y24575
X18034Y24575
X17034Y24575
X12834Y24575
X11834Y24575
X10834Y24575
X9834Y24575
X8834Y24575
X7834Y24575
X6834Y24575
X7334Y17575
X8334Y17575
X9334Y17575
X10334Y17575
X11334Y17575
X12334Y17575
X17534Y17575
X18534Y17575
X19534Y17575
X20534Y17575
X21534Y17575
X22534Y17575
X27734Y17575
X28734Y17575
X29734Y17575
X30734Y17575
X31734Y17575
X32734Y17575
X32234Y10375
X31234Y10375
X30234Y10375
X29234Y10375
X28234Y10375
X27234Y10375
X23034Y10375
X22034Y10375
X21034Y10375
X20034Y10375
X19034Y10375
X18034Y10375
X17034Y10375
X12834Y10375
X11834Y10375
X10834Y10375
X9834Y10375
X8834Y10375
X7834Y10375
X6834Y10375
X7334Y3375
X8334Y3375
X9334Y3375
X10334Y3375
X11334Y3375
X12334Y3375
X17534Y3375
X18534Y3375
X19534Y3375
X20534Y3375
X21534Y3375
X22534Y3375
X27734Y3375
X28734Y3375
X29734Y3375
X30734Y3375
X31734Y3375
X32734Y3375
X33234Y10375
T03
X31134Y12025
X30134Y12025
X29134Y12025
X28134Y12025
X28134Y14025
X29134Y14025
X30134Y14025
X31134Y14025
X20934Y14025
X19934Y14025
X18934Y14025
X17934Y14025
X17934Y12025
X18934Y12025
X19934Y12025
X20934Y12025
X10734Y12025
X9734Y12025
X8734Y12025
X7734Y12025
X7734Y14025
X8734Y14025
X9734Y14025
X10734Y14025
X10734Y26225
X9734Y26225
X8734Y26225
X7734Y26225
X7734Y28225
X8734Y28225
X9734Y28225
X10734Y28225
X17934Y28225
X18934Y28225
X19934Y28225
X20934Y28225
X20934Y26225
X19934Y26225
X18934Y26225
X17934Y26225
X28134Y26225
X29134Y26225
X30134Y26225
X31134Y26225
X31134Y28225
X30134Y28225
X29134Y28225
X28134Y28225
T04
X5834Y3875
X13834Y3875
X16034Y3875
X24034Y3875
X26234Y3875
X34234Y3875
X34234Y15875
X34234Y18075
X26234Y18075
X24034Y18075
X24034Y15875
X26234Y15875
X16034Y15875
X13834Y15875
X13834Y18075
X16034Y18075
X5834Y18075
X5834Y15875
X5834Y30075
X13834Y30075
X16034Y30075
X24034Y30075
X26234Y30075
X34234Y30075
M30
